<?xml version="1.0" standalone="no"?>
<!DOCTYPE svg PUBLIC "-//W3C//DTD SVG 20010904//EN"
 "http://www.w3.org/TR/2001/REC-SVG-20010904/DTD/svg10.dtd">
<svg version="1.0" xmlns="http://www.w3.org/2000/svg"
 width="512.000000pt" height="512.000000pt" viewBox="0 0 512.000000 512.000000"
 preserveAspectRatio="xMidYMid meet">
<metadata>
Created by potrace 1.14, written by Peter Selinger 2001-2017
</metadata>
<g transform="translate(0.000000,512.000000) scale(0.100000,-0.100000)"
fill="#000000" stroke="none">
<path d="M1016 5109 c-323 -21 -502 -91 -693 -273 -215 -204 -289 -384 -313
-756 -13 -217 -13 -2818 0 -3035 22 -356 87 -525 274 -722 204 -215 384 -289
756 -313 217 -13 2818 -13 3035 0 356 22 525 87 722 274 215 204 289 384 313
756 13 217 13 2818 0 3035 -22 356 -87 525 -274 722 -204 215 -384 289 -756
313 -196 12 -2869 11 -3064 -1z m2724 -1036 c216 -73 354 -263 354 -488 0
-194 -102 -362 -273 -454 -110 -58 -137 -61 -761 -61 -468 0 -576 -3 -623 -15
-228 -59 -387 -263 -387 -495 0 -185 105 -362 266 -447 118 -63 120 -63 744
-63 624 0 651 -3 761 -61 171 -91 273 -261 273 -454 0 -225 -138 -415 -354
-488 -63 -21 -80 -22 -620 -25 -355 -2 -601 1 -683 8 -400 35 -769 218 -1025
510 -388 443 -493 1048 -277 1591 117 293 314 535 580 711 203 134 453 223
695 247 47 5 351 8 675 7 578 -1 591 -2 655 -23z"/>
</g>
</svg>
